<?xml version="1.0" standalone="no"?><!DOCTYPE svg PUBLIC "-//W3C//DTD SVG 1.1//EN" "http://www.w3.org/Graphics/SVG/1.1/DTD/svg11.dtd"><svg t="1662785316534" class="icon" viewBox="0 0 1024 1024" version="1.1" xmlns="http://www.w3.org/2000/svg" p-id="1177" xmlns:xlink="http://www.w3.org/1999/xlink" width="200" height="200"><path d="M512 517.12m-460.8 0a460.8 460.8 0 1 0 921.6 0 460.8 460.8 0 1 0-921.6 0Z" fill="#F9D67A" p-id="1178"></path><path d="M409.9072 670.4128s-148.6336-125.3888-148.6336-250.7264C261.2736 281.1904 373.5552 168.96 512 168.96s250.7264 112.2304 250.7264 250.7264c0 130.816-148.6336 250.7264-148.6336 250.7264H409.9072z" fill="#FFFFFF" p-id="1179"></path><path d="M615.8848 675.5328h-207.872l-1.4336-1.2288c-6.144-5.1712-150.4256-128.3584-150.4256-254.6176C256.1536 278.6304 370.944 163.84 512 163.84s255.8464 114.7904 255.8464 255.8464c0 131.7376-144.384 249.7536-150.528 254.72l-1.4336 1.1264z m-204.0832-10.24h200.448c14.8992-12.4928 145.3568-125.44 145.3568-245.6064C757.6064 284.2624 647.424 174.08 512 174.08S266.3936 284.2624 266.3936 419.6864c0 115.1488 130.4064 232.448 145.408 245.6064z" fill="#413D2C" p-id="1180"></path><path d="M618.2912 422.4c0 188.0576-106.2912 248.0128-106.2912 248.0128s-106.2912-49.0496-106.2912-248.0128c0-177.152 106.2912-248.0128 106.2912-248.0128s106.2912 65.4336 106.2912 248.0128z" fill="#F48433" p-id="1181"></path><path d="M512 675.5328c-0.7168 0-1.4848-0.1536-2.1504-0.4608-4.4544-2.048-109.2608-52.736-109.2608-252.6208 0-177.8176 107.4688-251.5456 108.544-252.2624 1.6896-1.1264 3.84-1.1264 5.5296-0.1024 4.4544 2.7136 108.6976 69.0176 108.6976 252.3648 0 188.8768-104.448 249.9584-108.9024 252.4672-0.7168 0.3584-1.5872 0.6144-2.4576 0.6144z m0.1024-494.848C495.616 193.3824 410.8288 266.24 410.8288 422.4c0 176.8448 85.504 233.3184 100.9152 242.0736 15.2576-10.1888 101.376-74.9056 101.376-242.0736 0.0512-160.7168-84.48-229.7344-101.0176-241.7152z" fill="#413D2C" p-id="1182"></path><path d="M577.3824 844.8H452.0448l-32.7168-109.0048h190.7712z" fill="#6295CC" p-id="1183"></path><path d="M577.3824 849.92H452.0448c-2.2528 0-4.2496-1.4848-4.9152-3.6352L414.464 737.28a5.0688 5.0688 0 0 1 0.8192-4.5056c0.9728-1.28 2.5088-2.048 4.096-2.048h190.7712a5.12 5.12 0 0 1 4.9152 6.5536l-32.7168 109.0048c-0.6656 2.1504-2.6624 3.6352-4.9664 3.6352z m-121.5488-10.24h117.76l29.6448-98.7648H426.24L455.8336 839.68z" fill="#413D2C" p-id="1184"></path><path d="M444.7232 675.5328l23.296 60.2624" fill="#6295CC" p-id="1185"></path><path d="M468.0192 740.9152a5.0688 5.0688 0 0 1-4.7616-3.2768l-23.296-60.2624a5.10464 5.10464 0 0 1 9.5232-3.6864l23.296 60.2624c1.024 2.6624-0.3072 5.5808-2.9184 6.6048-0.6144 0.256-1.2288 0.3584-1.8432 0.3584z" fill="#413D2C" p-id="1186"></path><path d="M575.5392 675.5328l-23.296 60.2624" fill="#6295CC" p-id="1187"></path><path d="M552.2432 740.9152a5.12512 5.12512 0 0 1-4.7616-6.9632l23.296-60.2624c1.024-2.6112 3.9936-3.9424 6.6048-2.9184 2.6112 1.024 3.9424 3.9936 2.9184 6.6048l-23.296 60.2624a5.0688 5.0688 0 0 1-4.7616 3.2768z" fill="#413D2C" p-id="1188"></path></svg>