<?xml version="1.0" standalone="no"?><!DOCTYPE svg PUBLIC "-//W3C//DTD SVG 1.1//EN" "http://www.w3.org/Graphics/SVG/1.1/DTD/svg11.dtd"><svg t="1662773018864" class="icon" viewBox="0 0 1024 1024" version="1.1" xmlns="http://www.w3.org/2000/svg" p-id="1177" xmlns:xlink="http://www.w3.org/1999/xlink" width="200" height="200"><path d="M509.44 501.76m-460.8 0a460.8 460.8 0 1 0 921.6 0 460.8 460.8 0 1 0-921.6 0Z" fill="#F9D67A" p-id="1178"></path><path d="M777.1648 310.8352c-17.4592 0.9216-33.4848 12.032-40.4992 28.0576-7.8336 17.92-3.9936 36.1984 6.4512 49.3056l-4.9664 20.8896a94.49472 94.49472 0 0 1-92.0576 72.6528c-49.3568 0-90.368-37.9392-94.3104-87.0912l-4.7104-59.0336c22.7328-15.104 36.1984-43.1616 29.6448-73.6256-5.632-26.1632-26.8288-47.3088-53.0432-52.7872a69.79584 69.79584 0 0 0-84.736 68.1984c0 24.2688 12.4928 45.7216 31.3344 58.2144l-4.7104 59.0336c-3.9424 49.152-44.9536 87.0912-94.3104 87.0912-43.776 0-81.92-30.1056-92.0576-72.6528l-4.9664-20.8896c10.4448-13.056 14.2848-31.3856 6.4512-49.3056-6.9632-16.0256-22.9888-27.1872-40.4992-28.0576-31.8976-1.6384-55.0912 26.3168-50.0224 55.7568 2.8672 16.2816 13.6192 29.184 27.648 35.3792l42.3936 299.4176h496.7936v-0.1536l42.3936-299.3152a47.2576 47.2576 0 0 0 27.648-35.3792c5.2736-29.44-17.92-57.344-49.8688-55.7056z" fill="#F48433" p-id="1179"></path><path d="M756.9408 706.5088h-501.248l-42.5984-301.1072c-14.7456-7.5264-25.1392-21.504-28.0064-37.9904-2.7648-15.872 1.792-31.9488 12.544-44.032 10.7008-12.0832 26.2144-18.4832 42.8032-17.7152 19.456 0.9216 37.12 13.1584 44.9536 31.1296 7.7312 17.7152 5.5808 37.12-5.632 52.5312l4.4032 18.4832a89.1904 89.1904 0 0 0 87.0912 68.7616c46.336 0 85.504-36.1984 89.1904-82.3808l4.5056-56.1152a74.65984 74.65984 0 0 1-31.1296-60.7232c0-22.7328 10.1376-43.9296 27.7504-58.2656 17.6128-14.2848 40.6528-19.712 63.1296-14.9504 28.0576 5.888 50.944 28.672 56.9856 56.7296 6.3488 29.7472-5.12 59.7504-29.3376 77.2608l4.5056 56.1152c3.6864 46.1824 42.9056 82.3808 89.1904 82.3808 41.6256 0 77.4656-28.2624 87.0912-68.7616l4.4032-18.5344c-11.2128-15.4112-13.312-34.8672-5.5808-52.5312 7.8848-17.8688 25.4976-30.1056 44.9536-31.1296 16.5888-0.768 32.1536 5.6832 42.8544 17.8176 10.6496 12.0832 15.104 28.1088 12.288 43.9808-2.816 16.4352-13.2096 30.4128-28.0064 37.9392l-41.9328 296.192v4.7616l-5.1712 0.1536z m-492.3392-10.24h487.8848l42.1888-297.8304 2.6112-1.1264a42.2144 42.2144 0 0 0 24.6784-31.5904 41.9328 41.9328 0 0 0-9.8816-35.4304c-8.6016-9.7792-21.248-15.0016-34.6112-14.336-15.616 0.8192-29.7472 10.5984-36.096 24.9856-6.5024 14.8992-4.352 31.3344 5.7856 44.032l1.536 1.9456-5.5296 23.296c-10.7008 45.1072-50.6368 76.5952-97.024 76.5952-51.6096 0-95.2832-40.3456-99.4304-91.8016l-4.9664-62.0544 2.5088-1.6896c22.3744-14.8992 33.1776-41.6768 27.4944-68.3008-5.1712-24.1664-24.9344-43.776-49.1008-48.8448-19.5072-4.096-39.424 0.5632-54.5792 12.9024-15.2576 12.3904-24.0128 30.72-24.0128 50.3296 0 21.76 10.8544 41.9328 29.0304 53.9648l2.5088 1.6896-4.9664 62.0544c-4.096 51.4048-47.7696 91.7504-99.4304 91.7504a99.3792 99.3792 0 0 1-97.024-76.5952l-5.5296-23.296 1.5872-1.9456c10.1376-12.6464 12.288-29.0816 5.7856-44.032-6.1952-14.1824-20.6848-24.2176-36.0448-24.9856-13.4656-0.7168-25.9584 4.5056-34.6112 14.2848a42.15808 42.15808 0 0 0-10.0864 35.4816 42.43968 42.43968 0 0 0 24.6784 31.5904l2.6112 1.1264 42.0352 297.8304z" fill="#413D2C" p-id="1180"></path><path d="M189.6448 358.2464c0 26.368 21.3504 47.7696 47.7184 47.7696s47.7696-21.3504 47.7696-47.7184v-0.0512c0-26.368-21.3504-47.7696-47.7184-47.7696a47.7184 47.7184 0 0 0-47.7696 47.7696c0-0.0512 0 0 0 0z" fill="#FFFFFF" p-id="1181"></path><path d="M237.3632 411.0848c-29.184 0-52.8896-23.7568-52.8384-52.8896 0-14.1312 5.5296-27.392 15.5136-37.376 9.984-9.984 23.2448-15.4624 37.376-15.4624 29.1328 0 52.8384 23.7056 52.8384 52.8896-0.0512 29.184-23.7568 52.8384-52.8896 52.8384z m0-95.488c-11.3664 0-22.0672 4.4544-30.1056 12.4928s-12.4928 18.7392-12.4928 30.1568c0 23.5008 19.0976 42.6496 42.5984 42.6496s42.5984-19.0976 42.5984-42.5984c0.0512-23.552-19.0976-42.7008-42.5984-42.7008z" fill="#413D2C" p-id="1182"></path><path d="M732.5696 358.2464c0 26.3168 21.2992 47.6672 47.6672 47.7184 26.3168 0 47.6672-21.2992 47.7184-47.6672v-0.0512c0-26.3168-21.2992-47.6672-47.6672-47.7184s-47.6672 21.2992-47.7184 47.6672v0.0512z" fill="#FFFFFF" p-id="1183"></path><path d="M780.2368 411.0336s-0.0512 0 0 0c-14.1312 0-27.392-5.5296-37.376-15.4624a52.43904 52.43904 0 0 1-15.4624-37.3248v-0.0512c0-29.0816 23.7056-52.7872 52.7872-52.7872h0.0512c29.1328 0 52.7872 23.7056 52.736 52.8384 0 14.1824-5.5296 27.392-15.4624 37.376a52.39808 52.39808 0 0 1-37.2736 15.4112z m0-95.3856c-23.4496 0-42.5472 19.0464-42.5472 42.5472l-5.12 0.0512h5.12c0 11.3664 4.4032 22.0672 12.4416 30.1056a42.33728 42.33728 0 0 0 30.1056 12.4928c11.3664 0 22.016-4.4032 30.0544-12.4416a42.33728 42.33728 0 0 0 12.4928-30.1056c0-23.552-19.0464-42.6496-42.5472-42.6496z" fill="#413D2C" p-id="1184"></path><path d="M438.1696 276.1216c0 38.9632 31.5392 70.5536 70.5024 70.6048 38.9632 0 70.5536-31.5392 70.6048-70.5024v-0.1024c0-38.9632-31.5904-70.5536-70.5536-70.5536-38.9632 0-70.5536 31.5904-70.5536 70.5536z" fill="#FFFFFF" p-id="1185"></path><path d="M508.672 351.8464c-20.2752 0-39.2704-7.8848-53.5552-22.1696s-22.1696-33.28-22.1184-53.504c0-41.728 33.9456-75.6736 75.6736-75.6736 41.728 0 75.6736 33.9456 75.6736 75.6736 0 20.2752-7.8848 39.2704-22.1696 53.5552-14.2848 14.2336-33.28 22.1184-53.504 22.1184z m0.0512-141.1584c-36.0448 0-65.4336 29.3376-65.4336 65.4336v0.0512c0 36.0448 29.2864 65.4336 65.3824 65.4848h0.0512c17.4592 0 33.8944-6.8096 46.2336-19.1488 12.3904-12.3392 19.2-28.7744 19.2-46.2336-0.0512-36.2496-29.3888-65.5872-65.4336-65.5872z" fill="#413D2C" p-id="1186"></path><path d="M507.2896 728.9344H258.8672c0 40.704 32.9216 73.6256 73.6256 73.6256H683.7248c39.7312 0 71.8848-32.1536 71.8848-71.8848v-1.7408h-248.32z" fill="#6295CC" p-id="1187"></path><path d="M683.776 807.68h-351.232c-43.4176 0-78.7456-35.328-78.7456-78.7456v-5.12h507.0336v6.8608c-0.0512 42.496-34.6112 77.0048-77.056 77.0048zM264.192 734.0544c2.6112 35.3792 32.256 63.3856 68.352 63.3856h351.232c35.6864 0 64.9216-28.16 66.7136-63.3856H264.192z" fill="#413D2C" p-id="1188"></path><path d="M550.4512 534.3232h-43.3152v0.1536h-37.2736c-18.2272 0-33.2288 14.9504-33.2288 33.2288s14.9504 33.2288 33.2288 33.2288H550.4512c18.2272 0 33.2288-14.9504 33.2288-33.2288 0-18.432-14.9504-33.3824-33.2288-33.3824z" fill="#FFFFFF" p-id="1189"></path><path d="M550.4512 605.952H469.9136c-21.1456 0-38.3488-17.2032-38.3488-38.2976s17.2032-38.3488 38.3488-38.3488l80.5888-0.1536c21.1456 0 38.3488 17.2544 38.3488 38.4512-0.0512 21.1456-17.2544 38.3488-38.4 38.3488z m-80.5376-66.4064c-15.4624 0-28.1088 12.5952-28.1088 28.1088s12.5952 28.0576 28.1088 28.0576h80.5888c15.4624 0 28.1088-12.5952 28.1088-28.0576 0-15.5648-12.5952-28.2112-28.1088-28.2112l-80.5888 0.1024z" fill="#413D2C" p-id="1190"></path></svg>